<svg xmlns="http://www.w3.org/2000/svg" viewBox="-16 -43 250 250"><rect x="-16" y="-43" width="250" height="250" rx="44" fill="#FFFFFF"/><path fill="#0B162B" d="M163.27272 73.18182l-24.27274-25.72726-46.99999-47.45456-91.99999 0 0 162.36365 29.27272 0 0-69.09091 18.54547 0 61.81816 69.09091 40.63639 0-63.8182-69.09091 9.90911 0 22.90907-22.54546 23.45454 22.54546 0.72728 0 64.00002 69.09091 10.45453 0 0-30.7273-54.63637-58.45453z m-77.45453-6.09089l-56.54547 0 0-38.18184 50.72728 0 20 22.9091-14.18181 15.27274z"/><path fill="#4F42F4" transform="translate(139 0)" d="M46.9091 0l-46.9091 47.45456 24.27274 25.72726 54.54545-56 0-17.18182-31.90909 0z"/></svg>
